<svg width="263" height="80" viewBox="0 0 263 80" fill="none" xmlns="http://www.w3.org/2000/svg">
<g clip-path="url(#clip0_4450_18354)">
<path d="M60.5744 30.1667L66.8564 18.9371C66.9584 18.7922 67.0271 18.6265 67.0577 18.4519C67.0883 18.2774 67.08 18.0982 67.0334 17.9272C66.9867 17.7562 66.9029 17.5976 66.7879 17.4627C66.6729 17.3279 66.5296 17.22 66.3681 17.147C66.0777 16.9935 65.739 16.9587 65.4234 17.0497C65.1078 17.1408 64.8397 17.3506 64.6756 17.6352L58.1657 28.9949C52.5895 26.6114 46.5882 25.3826 40.5239 25.3826C34.4597 25.3826 28.4584 26.6114 22.8822 28.9949L16.3722 17.6677C16.2221 17.4376 16.0013 17.2625 15.743 17.1686C15.4848 17.0747 15.2031 17.0671 14.9402 17.147C14.7972 17.222 14.6708 17.3249 14.5685 17.4497C14.4662 17.5746 14.3899 17.7187 14.3444 17.8735C14.2988 18.0284 14.2849 18.1908 14.3034 18.3512C14.3218 18.5115 14.3724 18.6665 14.4519 18.807L20.7339 30.1667C14.6628 33.0241 9.50732 37.5157 5.84522 43.1382C2.18313 48.7607 0.159123 55.2919 0 62H81.3735C81.2159 55.2832 79.1852 48.7439 75.5103 43.1194C71.8354 37.4949 66.6623 33.0087 60.5744 30.1667ZM22.1661 47.5806C21.5224 47.5806 20.8931 47.3897 20.3578 47.032C19.8226 46.6744 19.4054 46.166 19.159 45.5713C18.9127 44.9765 18.8482 44.3221 18.9738 43.6907C19.0994 43.0593 19.4094 42.4793 19.8646 42.0241C20.3198 41.5689 20.8998 41.2589 21.5311 41.1333C22.1625 41.0077 22.817 41.0722 23.4117 41.3185C24.0065 41.5649 24.5148 41.9821 24.8725 42.5173C25.2301 43.0526 25.421 43.6819 25.421 44.3257C25.4297 44.7586 25.3519 45.1888 25.1922 45.5913C25.0325 45.9937 24.7942 46.3603 24.491 46.6695C24.1879 46.9786 23.8262 47.2242 23.427 47.3919C23.0278 47.5595 22.5991 47.6458 22.1661 47.6457V47.5806ZM59.1422 47.5806C58.4984 47.5805 57.8691 47.3896 57.3339 47.0319C56.7987 46.6743 56.3815 46.1659 56.1352 45.5712C55.8888 44.9764 55.8244 44.322 55.95 43.6906C56.0756 43.0592 56.3856 42.4792 56.8408 42.0241C57.296 41.5689 57.876 41.2589 58.5074 41.1333C59.1388 41.0077 59.7932 41.0722 60.388 41.3186C60.9827 41.5649 61.491 41.9821 61.8487 42.5174C62.2063 43.0526 62.3972 43.6819 62.3972 44.3257C62.4059 44.7586 62.3281 45.1889 62.1684 45.5913C62.0087 45.9938 61.7703 46.3603 61.4672 46.6695C61.164 46.9787 60.8023 47.2243 60.403 47.3919C60.0038 47.5595 59.5752 47.6458 59.1422 47.6457V47.5806Z" fill="#3DDB84"/>
<path d="M249.689 61.806C247.688 61.806 245.897 61.2919 244.316 60.2638C242.735 59.2357 241.486 57.7433 240.569 55.7866C239.651 53.8299 239.192 51.4531 239.192 48.6562C239.192 45.8262 239.657 43.4383 240.585 41.4927C241.525 39.536 242.791 38.0601 244.383 37.0652C245.975 36.0592 247.749 35.5562 249.706 35.5562C251.198 35.5562 252.425 35.8105 253.387 36.319C254.349 36.8165 255.111 37.4189 255.675 38.1265C256.239 38.8229 256.676 39.4807 256.985 40.0998H257.234V27.3977H263.253V61.3583H257.35V57.3454H256.985C256.676 57.9644 256.228 58.6222 255.642 59.3186C255.056 60.004 254.282 60.59 253.321 61.0764C252.359 61.5628 251.148 61.806 249.689 61.806ZM251.364 56.881C252.635 56.881 253.718 56.5383 254.614 55.8529C255.509 55.1565 256.189 54.1892 256.654 52.951C257.118 51.7129 257.35 50.2702 257.35 48.6231C257.35 46.9759 257.118 45.5443 256.654 44.3282C256.2 43.1122 255.526 42.167 254.631 41.4927C253.746 40.8183 252.657 40.4811 251.364 40.4811C250.026 40.4811 248.91 40.8294 248.014 41.5258C247.119 42.2223 246.444 43.1841 245.991 44.4112C245.538 45.6382 245.311 47.0422 245.311 48.6231C245.311 50.215 245.538 51.6355 245.991 52.8847C246.455 54.1229 247.135 55.1012 248.031 55.8198C248.937 56.5273 250.048 56.881 251.364 56.881Z" fill="black"/>
<path d="M228.06 61.3583V35.8879H234.063V61.3583H228.06ZM231.078 32.273C230.128 32.273 229.309 31.9579 228.624 31.3278C227.939 30.6866 227.596 29.9183 227.596 29.0228C227.596 28.1163 227.939 27.348 228.624 26.7179C229.309 26.0767 230.128 25.7561 231.078 25.7561C232.04 25.7561 232.858 26.0767 233.532 26.7179C234.218 27.348 234.561 28.1163 234.561 29.0228C234.561 29.9183 234.218 30.6866 233.532 31.3278C232.858 31.9579 232.04 32.273 231.078 32.273Z" fill="black"/>
<path d="M210.75 61.8557C208.263 61.8557 206.107 61.3085 204.283 60.214C202.459 59.1196 201.044 57.5885 200.038 55.6207C199.043 53.653 198.546 51.3536 198.546 48.7225C198.546 46.0914 199.043 43.7865 200.038 41.8077C201.044 39.8289 202.459 38.2922 204.283 37.1978C206.107 36.1034 208.263 35.5562 210.75 35.5562C213.238 35.5562 215.394 36.1034 217.218 37.1978C219.042 38.2922 220.451 39.8289 221.446 41.8077C222.452 43.7865 222.955 46.0914 222.955 48.7225C222.955 51.3536 222.452 53.653 221.446 55.6207C220.451 57.5885 219.042 59.1196 217.218 60.214C215.394 61.3085 213.238 61.8557 210.75 61.8557ZM210.784 57.0468C212.132 57.0468 213.26 56.6765 214.166 55.9358C215.073 55.1841 215.747 54.1781 216.189 52.9178C216.643 51.6576 216.869 50.2536 216.869 48.7059C216.869 47.1472 216.643 45.7377 216.189 44.4774C215.747 43.2061 215.073 42.1946 214.166 41.4429C213.26 40.6911 212.132 40.3153 210.784 40.3153C209.402 40.3153 208.252 40.6911 207.335 41.4429C206.428 42.1946 205.748 43.2061 205.295 44.4774C204.853 45.7377 204.632 47.1472 204.632 48.7059C204.632 50.2536 204.853 51.6576 205.295 52.9178C205.748 54.1781 206.428 55.1841 207.335 55.9358C208.252 56.6765 209.402 57.0468 210.784 57.0468Z" fill="black"/>
<path d="M182.185 61.3592V35.8887H188.005V40.1338H188.271C188.735 38.6635 189.531 37.5304 190.658 36.7344C191.797 35.9274 193.096 35.5239 194.555 35.5239C194.887 35.5239 195.257 35.5405 195.666 35.5737C196.086 35.5958 196.435 35.6345 196.711 35.6897V41.2117C196.457 41.1232 196.053 41.0458 195.5 40.9795C194.959 40.9021 194.434 40.8634 193.925 40.8634C192.831 40.8634 191.847 41.1011 190.973 41.5765C190.111 42.0408 189.431 42.6875 188.934 43.5166C188.436 44.3457 188.188 45.302 188.188 46.3853V61.3592H182.185Z" fill="black"/>
<path d="M162.224 61.806C160.223 61.806 158.432 61.2919 156.851 60.2638C155.27 59.2357 154.021 57.7433 153.103 55.7866C152.186 53.8299 151.727 51.4531 151.727 48.6562C151.727 45.8262 152.191 43.4383 153.12 41.4927C154.06 39.536 155.325 38.0601 156.917 37.0652C158.509 36.0592 160.284 35.5562 162.24 35.5562C163.733 35.5562 164.96 35.8105 165.922 36.319C166.883 36.8165 167.646 37.4189 168.21 38.1265C168.774 38.8229 169.21 39.4807 169.52 40.0998H169.769V27.3977H175.788V61.3583H169.885V57.3454H169.52C169.21 57.9644 168.763 58.6222 168.177 59.3186C167.591 60.004 166.817 60.59 165.855 61.0764C164.893 61.5628 163.683 61.806 162.224 61.806ZM163.898 56.881C165.17 56.881 166.253 56.5383 167.149 55.8529C168.044 55.1565 168.724 54.1892 169.188 52.951C169.653 51.7129 169.885 50.2702 169.885 48.6231C169.885 46.9759 169.653 45.5443 169.188 44.3282C168.735 43.1122 168.061 42.167 167.165 41.4927C166.281 40.8183 165.192 40.4811 163.898 40.4811C162.561 40.4811 161.444 40.8294 160.549 41.5258C159.653 42.2223 158.979 43.1841 158.526 44.4112C158.073 45.6382 157.846 47.0422 157.846 48.6231C157.846 50.215 158.073 51.6355 158.526 52.8847C158.99 54.1229 159.67 55.1012 160.565 55.8198C161.472 56.5273 162.583 56.881 163.898 56.881Z" fill="black"/>
<path d="M130.323 46.4341V61.3582H124.321V35.8878H130.058V40.2158H130.357C130.942 38.7897 131.877 37.6566 133.159 36.8164C134.452 35.9762 136.05 35.5562 137.951 35.5562C139.709 35.5562 141.24 35.932 142.545 36.6837C143.86 37.4355 144.877 38.5244 145.596 39.9505C146.325 41.3765 146.685 43.1066 146.674 45.1407V61.3582H140.671V46.0693C140.671 44.3669 140.229 43.0348 139.344 42.073C138.471 41.1112 137.26 40.6303 135.713 40.6303C134.662 40.6303 133.728 40.8625 132.91 41.3268C132.103 41.78 131.468 42.4378 131.003 43.3001C130.55 44.1624 130.323 45.2071 130.323 46.4341Z" fill="black"/>
<path d="M104.828 61.8723C103.213 61.8723 101.76 61.5848 100.466 61.01C99.184 60.4241 98.1669 59.5618 97.4152 58.4232C96.6745 57.2845 96.3042 55.8805 96.3042 54.2112C96.3042 52.7741 96.5695 51.5857 97.1001 50.646C97.6308 49.7064 98.3549 48.9547 99.2724 48.3909C100.19 47.8271 101.224 47.4014 102.373 47.114C103.534 46.8155 104.734 46.6 105.972 46.4673C107.464 46.3125 108.675 46.1744 109.603 46.0528C110.532 45.9201 111.206 45.7211 111.626 45.4558C112.057 45.1794 112.273 44.7538 112.273 44.179V44.0795C112.273 42.8303 111.903 41.863 111.162 41.1776C110.421 40.4922 109.354 40.1495 107.962 40.1495C106.491 40.1495 105.325 40.47 104.463 41.1112C103.611 41.7524 103.037 42.5097 102.738 43.383L97.1333 42.5871C97.5755 41.0394 98.3051 39.7459 99.3222 38.7068C100.339 37.6566 101.583 36.8717 103.053 36.3521C104.523 35.8215 106.149 35.5562 107.928 35.5562C109.155 35.5562 110.377 35.6999 111.593 35.9873C112.809 36.2747 113.92 36.7501 114.926 37.4134C115.932 38.0656 116.739 38.9555 117.347 40.0831C117.966 41.2107 118.276 42.6202 118.276 44.3116V61.3582H112.505V57.8594H112.306C111.941 58.5669 111.427 59.2302 110.764 59.8492C110.112 60.4572 109.288 60.9492 108.293 61.3251C107.309 61.6899 106.154 61.8723 104.828 61.8723ZM106.386 57.4614C107.591 57.4614 108.636 57.2237 109.52 56.7483C110.405 56.2619 111.085 55.6207 111.56 54.8248C112.046 54.0288 112.29 53.161 112.29 52.2214V49.22C112.102 49.3747 111.781 49.5185 111.328 49.6511C110.886 49.7838 110.388 49.8998 109.835 49.9993C109.283 50.0988 108.735 50.1873 108.194 50.2647C107.652 50.342 107.182 50.4084 106.784 50.4636C105.889 50.5852 105.087 50.7842 104.38 51.0606C103.672 51.337 103.114 51.7239 102.705 52.2214C102.296 52.7078 102.091 53.3379 102.091 54.1118C102.091 55.2172 102.495 56.0519 103.302 56.6157C104.109 57.1795 105.137 57.4614 106.386 57.4614Z" fill="black"/>
</g>
<defs>
<clipPath id="clip0_4450_18354">
<rect width="263" height="80" fill="white"/>
</clipPath>
</defs>
</svg>
