<svg width="181" height="80" viewBox="0 0 181 80" fill="none" xmlns="http://www.w3.org/2000/svg">
<g clip-path="url(#clip0_4515_3852)">
<path d="M180.57 61.678C180.088 61.6444 179.608 61.6055 179.126 61.576C177.745 61.4914 176.365 61.5008 174.986 61.6068C174.766 61.6243 174.549 61.6578 174.305 61.686C174.322 61.6028 174.324 61.5572 174.343 61.5183C174.715 60.7345 174.811 59.8889 174.836 59.042C174.92 56.2343 175.002 53.4253 175.036 50.6175C175.071 47.685 175.055 44.7525 175.045 41.8199C175.041 40.4604 175.012 39.0995 174.974 37.7399C174.956 37.1051 174.94 36.4649 174.835 35.8408C174.661 34.798 174.2 33.9028 173.298 33.2679C172.481 32.6922 171.565 32.4425 170.58 32.4143C169.848 32.3929 169.121 32.4613 168.408 32.6291C166.993 32.9606 165.961 33.8075 165.237 35.0355C164.616 36.0864 164.279 37.2406 164.048 38.4284C163.835 39.5262 163.758 40.6375 163.714 41.7515C163.573 45.2517 163.631 48.7533 163.658 52.2536C163.672 54.0252 163.734 55.7981 163.789 57.5697C163.815 58.371 163.849 59.1749 163.931 59.9721C163.977 60.411 164.129 60.8378 164.236 61.27C164.261 61.3733 164.295 61.4753 164.34 61.6323C162.223 61.4216 160.155 61.3518 158.071 61.6243C158.191 61.2512 158.343 60.9317 158.39 60.5976C158.489 59.8929 158.559 59.1816 158.593 58.4703C158.683 56.5336 158.771 54.5956 158.821 52.6562C158.898 49.6579 158.976 46.6596 158.989 43.6613C158.999 41.3878 158.935 39.1129 158.853 36.8407C158.803 35.4502 158.725 34.0584 158.485 32.6814C158.357 31.9486 158.133 31.2561 157.725 30.6266C157.648 30.5072 157.584 30.381 157.487 30.2106C157.709 30.1488 157.886 30.0858 158.068 30.0549C158.587 29.9663 159.111 29.8992 159.63 29.8079C160.877 29.5865 162.053 29.157 163.19 28.6108C163.289 28.5638 163.391 28.5262 163.517 28.4739C163.598 28.8322 163.55 29.1637 163.559 29.4925C163.568 29.8267 163.563 30.1609 163.563 30.4965C163.563 30.8306 163.565 31.1648 163.567 31.5004C163.568 31.8359 163.569 32.1687 163.571 32.5043C163.572 32.8398 163.573 33.1726 163.573 33.5082C163.573 33.8397 163.573 34.1712 163.63 34.5268C163.683 34.4517 163.745 34.3819 163.788 34.3014C163.997 33.9068 164.206 33.5122 164.406 33.1136C165.026 31.8762 165.93 30.8803 167.094 30.1354C168.105 29.4885 169.216 29.0819 170.414 28.9101C171.139 28.8067 171.867 28.7383 172.596 28.7772C173.571 28.8309 174.544 28.9517 175.476 29.2577C176.71 29.6617 177.672 30.4481 178.457 31.4601C178.813 31.9191 179.175 32.3727 179.389 32.9244C179.605 33.4813 179.736 34.0544 179.745 34.6503C179.774 36.4568 179.797 38.262 179.822 40.0685C179.87 43.3016 179.911 46.5348 179.967 49.7666C180 51.7624 180.041 53.7568 180.099 55.7512C180.145 57.3443 180.208 58.9374 180.297 60.5291C180.317 60.8955 180.474 61.2539 180.567 61.6162V61.6833L180.57 61.678Z" fill="#F61100"/>
<path d="M67.856 61.5007C65.7353 61.2698 63.6861 61.2926 61.6423 61.4792C61.6302 61.4309 61.6127 61.4054 61.6208 61.3906C61.931 60.7518 61.9931 60.0619 62.0201 59.3721C62.101 57.3119 62.1874 55.2504 62.2292 53.1889C62.2723 51.0818 62.2845 48.9746 62.2791 46.8675C62.2737 44.6382 62.2494 42.4076 62.2008 40.1784C62.1752 39.0429 62.0943 37.9075 62.0066 36.7734C61.9742 36.3547 61.8676 35.9386 61.7678 35.5293C61.4306 34.1603 60.4673 33.4168 59.1494 33.1322C58.2374 32.9349 57.2958 32.9645 56.3677 33.1269C55.2534 33.3215 54.4062 33.9254 53.7654 34.8247C53.2649 35.5279 52.8359 36.2768 52.6228 37.121C52.5256 37.5076 52.4555 37.9088 52.4366 38.3061C52.3773 39.6093 52.3219 40.9125 52.3098 42.2171C52.2896 44.3913 52.299 46.5655 52.3017 48.7398C52.3085 52.4199 52.3246 56.0986 52.3246 59.7787C52.3246 60.325 52.3975 60.843 52.6309 61.3383C52.6538 61.3879 52.67 61.4403 52.7064 61.5329C50.6006 61.3141 48.5285 61.3477 46.4307 61.5839C46.9474 60.5531 46.9258 59.4593 46.9785 58.3869C47.2564 52.6601 47.2226 46.9279 47.1876 41.197C47.1741 38.9664 47.1403 36.7372 47.1228 34.5066C47.1174 33.8261 46.9717 33.1819 46.6992 32.5605C46.3404 31.7391 45.9424 31.0654 45.0952 29.891C47.429 29.6092 49.6873 29.0616 51.9766 28.4321C51.986 28.569 52.0036 28.6952 52.0036 28.8213C51.9928 30.3379 51.9766 31.8532 51.9725 33.3698C51.9725 33.6476 52.0117 33.9254 52.0427 34.2019C52.0521 34.2838 52.098 34.3603 52.1479 34.4945C52.2599 34.3898 52.357 34.3308 52.411 34.2449C52.581 33.9711 52.7698 33.7013 52.8899 33.406C53.3877 32.178 54.2214 31.2251 55.275 30.4386C56.8857 29.2361 58.7177 28.7314 60.7048 28.7811C62.6271 28.8281 64.2244 29.5796 65.4412 31.0855C65.9943 31.7686 66.3531 32.535 66.5218 33.3953C66.5798 33.6879 66.685 33.9724 66.7808 34.2569C66.8037 34.3254 66.8712 34.3777 66.9346 34.4583C67.1585 34.3616 67.2975 34.1885 67.4229 34.0086C67.6765 33.6409 67.9275 33.2705 68.1649 32.892C68.9595 31.6237 70.013 30.6184 71.327 29.9031C72.5398 29.2428 73.8389 28.8321 75.2338 28.7636C76.0095 28.7261 76.7784 28.7609 77.546 28.8911C78.3203 29.0227 78.9989 29.3448 79.6114 29.8159C80.468 30.4775 81.1331 31.2908 81.585 32.2773C81.7563 32.6504 81.8251 33.0437 81.8629 33.4423C81.9317 34.163 81.991 34.8864 82.0248 35.6098C82.0949 37.1465 82.1462 38.6833 82.2015 40.2213C82.2177 40.6669 82.2136 41.1138 82.2204 41.5594C82.246 43.0196 82.2824 44.4799 82.2959 45.9414C82.3188 48.4499 82.3202 50.9583 82.3445 53.4667C82.3593 54.9833 82.3715 56.4999 82.443 58.0138C82.4969 59.1466 82.5765 60.2847 82.8868 61.3879C82.8922 61.4067 82.88 61.4295 82.8679 61.4926C80.816 61.29 78.7574 61.2108 76.6718 61.4926C76.6826 61.4148 76.6786 61.3718 76.6934 61.3396C77.0482 60.5733 77.1224 59.7519 77.1791 58.9278C77.3747 56.112 77.3801 53.2896 77.3774 50.4698C77.3747 46.277 77.3436 42.0842 77.3086 37.8914C77.3018 37.0915 77.2721 36.2835 77.0469 35.5051C76.8108 34.6891 76.3656 34.0113 75.6695 33.4973C75.2783 33.2087 74.8358 33.0544 74.3704 32.9779C73.2318 32.7927 72.1121 32.9014 71.0073 33.2222C70.1898 33.4597 69.5544 33.9617 68.9878 34.5603C68.2876 35.2998 67.806 36.1627 67.6307 37.1667C67.5389 37.6914 67.4985 38.2283 67.4755 38.7624C67.4283 39.82 67.4 40.879 67.3798 41.9379C67.3487 43.5994 67.3136 45.2597 67.3123 46.9212C67.3096 50.4778 67.3244 54.0358 67.3393 57.5924C67.342 58.3051 67.369 59.0191 67.4081 59.7318C67.4229 59.9948 67.4971 60.2579 67.5632 60.5155C67.6442 60.8269 67.7467 61.1316 67.8573 61.4993L67.856 61.5007Z" fill="#F61100"/>
<path d="M89.2002 60.6337C89.4781 59.0836 89.4052 57.5294 89.4997 55.9873C89.5698 54.8532 89.5725 53.7151 89.6008 52.5783C89.6615 50.1155 89.7357 47.6527 89.7748 45.1899C89.8072 43.1606 89.7951 41.1313 89.8032 39.1034C89.8126 36.7963 89.8315 34.4878 89.8288 32.1807C89.8275 30.4078 89.8113 28.6349 89.7789 26.8633C89.7573 25.6379 89.7128 24.4125 89.6507 23.1885C89.5873 21.9618 89.161 20.8412 88.5594 19.7795C88.4825 19.6453 88.3732 19.5286 88.2815 19.4024C88.21 19.3058 88.1425 19.2064 88.0737 19.1071C88.2181 18.9139 88.4123 18.8951 88.5972 18.8669C89.5064 18.726 90.4102 18.5636 91.2979 18.3139C92.3906 18.0066 93.4428 17.5892 94.4897 17.1584C94.6125 17.1074 94.7379 17.0658 94.9092 17.0027C94.8957 17.2322 94.8957 17.4201 94.8715 17.6026C94.6961 18.887 94.6637 20.1808 94.6394 21.472C94.572 24.9829 94.5302 28.4939 94.4897 32.0049C94.4762 33.1524 94.4924 34.3013 94.4978 35.4501C94.4978 35.5897 94.5153 35.7293 94.5248 35.889C94.6961 35.8501 94.7312 35.7374 94.7757 35.6448C94.9146 35.3522 95.0495 35.0582 95.1763 34.7616C95.6013 33.7644 96.0546 32.786 96.7088 31.9083C97.556 30.7715 98.6231 29.9139 99.9087 29.3113C100.47 29.0482 101.074 28.9758 101.676 28.9288C102.73 28.8469 103.784 28.8617 104.825 29.0992C106.184 29.4106 107.296 30.1112 108.208 31.158C109.537 32.6854 110.24 34.5013 110.727 36.4205C111.031 37.6217 111.22 38.843 111.346 40.0751C111.508 41.6642 111.541 43.2573 111.455 44.8504C111.342 46.9025 111.033 48.9264 110.512 50.9168C110.115 52.4293 109.61 53.9003 108.885 55.2961C108.225 56.5671 107.277 57.5992 106.249 58.5695C105.498 59.2782 104.686 59.913 103.809 60.4579C102.704 61.1437 101.51 61.6108 100.215 61.8108C98.8997 62.0148 97.579 62.0268 96.2515 61.9812C94.8216 61.9315 93.4159 61.7195 92.0142 61.4672C91.5515 61.384 91.0888 61.2927 90.6234 61.2269C90.0959 61.1518 89.6683 60.8619 89.2029 60.6377L89.2002 60.6337ZM94.5693 51.2899C94.5693 51.2899 94.5639 51.2899 94.5625 51.2899C94.5625 52.2481 94.5464 53.2078 94.5666 54.166C94.5868 55.1122 94.6381 56.0584 94.6907 57.0046C94.7123 57.3938 94.7851 57.7777 94.9632 58.1347C95.1062 58.4206 95.3207 58.6299 95.635 58.697C95.9291 58.7601 96.2313 58.8151 96.5308 58.8205C97.181 58.8313 97.8339 58.8286 98.4841 58.7923C99.2814 58.748 100.075 58.6272 100.83 58.3736C101.881 58.0206 102.7 57.3187 103.407 56.4973C104.922 54.7378 105.715 52.6441 106.167 50.4081C106.481 48.8499 106.536 47.2662 106.55 45.6838C106.565 44.0679 106.487 42.4547 106.326 40.8441C106.21 39.6845 106.021 38.5491 105.568 37.4674C105.252 36.7144 104.901 35.9803 104.413 35.32C103.787 34.4744 102.993 33.8423 101.99 33.4799C100.876 33.0773 99.7981 33.135 98.8025 33.7913C98.2049 34.1859 97.668 34.6663 97.2012 35.2153C97.0501 35.3938 96.9044 35.5776 96.7682 35.7682C96.1099 36.6916 95.7335 37.7411 95.4313 38.8175C95.1264 39.9046 94.9511 41.0159 94.8647 42.1393C94.7582 43.5391 94.6232 44.9376 94.5814 46.3401C94.5329 47.9882 94.5693 49.6391 94.5693 51.2885V51.2899Z" fill="#F61100"/>
<path d="M2.27167 35.8797C1.93576 34.2933 1.44202 32.821 0.631252 31.4533C0.705449 31.3997 0.755363 31.3581 0.812022 31.3258C2.37959 30.4508 4.03484 29.816 5.81151 29.5046C7.16323 29.267 8.5217 29.1395 9.89905 29.1758C10.9311 29.2026 11.9658 29.1664 12.9978 29.1838C13.7829 29.1972 14.5667 29.2603 15.3302 29.4643C17.1015 29.9368 18.4613 30.9554 19.469 32.4747C20.0086 33.2867 20.2973 34.1617 20.4282 35.1187C20.5388 35.9307 20.5483 36.74 20.5523 37.5533C20.5685 40.9985 20.5779 44.4437 20.6049 47.8876C20.6211 49.9719 20.6575 52.0563 20.7007 54.1406C20.7304 55.5672 20.7776 56.9926 20.8315 58.4193C20.8531 58.9977 20.9071 59.5762 20.9624 60.1519C21.0069 60.6177 21.2336 61.0203 21.4629 61.4176C21.529 61.5316 21.6018 61.6417 21.6976 61.796C21.0514 61.8685 20.4606 61.7101 19.8643 61.7169C19.2464 61.7236 18.6286 61.7222 18.0107 61.7236C17.405 61.7236 16.8007 61.7236 16.1558 61.7236C16.1477 61.5826 16.1342 61.4645 16.1329 61.3478C16.1248 60.0996 16.1288 58.8501 16.1073 57.6019C16.0978 57.0798 16.0398 56.5577 15.9926 56.037C15.9818 55.9243 15.9278 55.8142 15.886 55.6786C15.6445 55.7713 15.5312 55.9417 15.4314 56.1081C15.283 56.3564 15.1535 56.6168 15.0253 56.8772C14.5397 57.865 13.9394 58.7749 13.1718 59.5708C12.4406 60.3291 11.5961 60.9344 10.6154 61.3303C9.58608 61.745 8.50551 61.9316 7.39526 61.9544C6.76392 61.9678 6.13932 61.8927 5.52012 61.7813C4.708 61.6363 3.99167 61.2672 3.3347 60.7881C2.05312 59.854 1.21538 58.5964 0.679817 57.1268C0.320977 56.143 0.184725 55.1163 0.0902935 54.0842C-0.0216755 52.8723 -0.0351658 51.6576 0.0768032 50.4444C0.188772 49.219 0.388428 48.0111 0.907802 46.881C1.57962 45.4208 2.61971 44.28 3.96604 43.4009C5.17477 42.6117 6.51435 42.1487 7.91059 41.8239C9.4188 41.4736 10.9499 41.3595 12.4919 41.4347C13.4996 41.4844 14.506 41.5797 15.5137 41.6535C15.7349 41.6696 15.9575 41.6803 16.2287 41.6951C16.2084 41.3783 16.1949 41.0951 16.172 40.8133C16.1154 40.1141 16.06 39.4135 15.9912 38.7156C15.886 37.6392 15.7525 36.5709 15.399 35.5361C14.8486 33.9269 13.7141 33.0303 12.048 32.7686C10.9432 32.5955 9.8343 32.6358 8.7254 32.7512C7.40336 32.8894 6.1663 33.3041 4.96702 33.8557C4.45978 34.0893 4.04294 34.4436 3.61934 34.7912C3.22947 35.1106 2.84365 35.4341 2.45513 35.7548C2.41331 35.7897 2.3661 35.8166 2.27302 35.881L2.27167 35.8797ZM4.51779 51.5033C4.5812 52.1113 4.61762 52.7246 4.7161 53.3272C4.86314 54.2238 5.16128 55.0747 5.66311 55.8451C6.24454 56.7362 7.03372 57.3295 8.1062 57.5241C8.74159 57.6381 9.38103 57.6542 10.0178 57.5898C10.7746 57.512 11.5017 57.3134 12.1168 56.8463C13.6642 55.6719 14.7447 54.1835 15.1859 52.2723C15.5623 50.6417 15.8105 48.9909 15.967 47.3266C16.0263 46.6958 16.0344 46.0597 16.0412 45.4248C16.0479 44.8517 15.944 44.7417 15.3977 44.6343C15.2992 44.6155 15.198 44.6035 15.0968 44.6008C14.278 44.5766 13.4591 44.5243 12.6416 44.5417C11.7567 44.5605 10.869 44.6129 9.98944 44.7108C8.40703 44.8866 7.14974 45.6839 6.0948 46.8314C5.55789 47.4152 5.14239 48.0634 4.91575 48.8298C4.65809 49.7035 4.54073 50.592 4.51779 51.506V51.5033Z" fill="#F61100"/>
<path d="M152.131 61.5879C150.103 61.5758 148.13 61.4389 146.12 61.7302C146.169 61.6013 146.204 61.5128 146.238 61.4228C146.445 60.8873 146.571 60.3384 146.562 59.76C146.548 58.8903 146.555 58.0206 146.53 57.1509C146.515 56.6731 146.451 56.1966 146.404 55.7202C146.396 55.637 146.353 55.5564 146.325 55.4719C146.12 55.4934 146.026 55.6302 145.951 55.7591C145.751 56.0946 145.561 56.4355 145.384 56.7831C144.681 58.1669 143.764 59.3721 142.492 60.2941C141.507 61.0081 140.4 61.3973 139.211 61.6013C138.032 61.804 136.861 61.7543 135.701 61.4873C134.946 61.3141 134.278 60.9437 133.669 60.4753C132.378 59.4795 131.535 58.1776 131.029 56.6436C130.704 55.6598 130.567 54.6451 130.505 53.6224C130.451 52.7339 130.414 51.8388 130.459 50.9503C130.522 49.694 130.658 48.4405 131.108 47.2447C131.755 45.5214 132.884 44.1913 134.422 43.1874C135.621 42.405 136.95 41.946 138.337 41.6239C140.103 41.2132 141.892 41.138 143.693 41.2575C144.599 41.3179 145.504 41.3984 146.411 41.4695C146.477 41.4749 146.544 41.4695 146.627 41.4695C146.642 41.4118 146.669 41.3595 146.664 41.3098C146.523 39.7905 146.462 38.2632 146.204 36.756C146.086 36.0621 145.892 35.3897 145.604 34.7428C145.097 33.602 144.185 32.9578 143.01 32.6464C142.001 32.3793 140.966 32.3686 139.932 32.4451C139.204 32.4988 138.479 32.5766 137.77 32.7605C136.788 33.0155 135.841 33.3591 134.963 33.8664C134.646 34.0503 134.368 34.3026 134.082 34.5348C133.64 34.8931 133.204 35.2609 132.745 35.642C132.519 34.8716 132.337 34.108 132.068 33.3752C131.797 32.6357 131.441 31.9284 131.109 31.1795C131.697 30.8909 132.288 30.5715 132.903 30.3058C134.692 29.534 136.572 29.1247 138.518 29.0334C139.795 28.973 141.075 28.9113 142.353 28.9247C143.258 28.9341 144.172 28.9314 145.071 29.0925C146.814 29.4038 148.305 30.1514 149.394 31.5754C149.732 32.0183 150.04 32.4867 150.326 32.9645C150.639 33.4906 150.747 34.0879 150.832 34.6864C150.944 35.4823 150.98 36.2822 150.983 37.0862C150.999 41.0884 151.016 45.0919 151.054 49.0941C151.077 51.4012 151.132 53.7083 151.188 56.0154C151.212 57.0516 151.275 58.0863 151.316 59.1224C151.348 59.9398 151.525 60.7102 152.026 61.3839C152.063 61.4336 152.085 61.4953 152.132 61.5879H152.131ZM134.971 51.263C135.002 51.7072 135.014 52.1542 135.068 52.5957C135.198 53.6587 135.5 54.672 136.083 55.5792C136.577 56.3483 137.213 56.9643 138.143 57.1992C138.945 57.4018 139.756 57.4622 140.579 57.3401C141.218 57.2448 141.842 57.0945 142.379 56.7268C143.807 55.747 144.876 54.4545 145.388 52.8105C146.075 50.6094 146.333 48.3237 146.472 46.0287C146.493 45.673 146.473 45.316 146.465 44.959C146.458 44.6785 146.321 44.492 146.033 44.4477C145.657 44.39 145.28 44.3081 144.901 44.2987C143.52 44.2665 142.14 44.3014 140.764 44.4329C140.035 44.5027 139.33 44.6705 138.658 44.9792C137.762 45.3925 137.043 46.0207 136.4 46.7441C135.841 47.3708 135.453 48.0889 135.257 48.9129C135.074 49.6873 134.968 50.4671 134.971 51.2643V51.263Z" fill="#F61100"/>
<path d="M33.9468 61.6498C32.9135 61.6082 31.8882 61.5371 30.8616 61.533C29.8431 61.529 28.8246 61.5921 27.7953 61.6256C27.802 61.6002 27.8074 61.5451 27.8303 61.5008C28.1541 60.8727 28.2809 60.1976 28.3146 59.5024C28.3699 58.4005 28.4401 57.2986 28.4671 56.1968C28.5588 52.4643 28.6667 48.7305 28.7045 44.9981C28.7342 42.1233 28.6775 39.2458 28.6357 36.3709C28.6236 35.5375 28.5494 34.7013 28.4576 33.8719C28.3753 33.1176 28.1811 32.3808 27.9005 31.6735C27.7656 31.3353 27.5673 31.0199 27.3811 30.7045C27.2637 30.5045 27.114 30.322 26.9575 30.1019C29.1767 29.663 31.3756 29.3006 33.5529 28.6819C33.5623 28.7866 33.5799 28.8685 33.5758 28.9504C33.4895 30.5193 33.3856 32.0869 33.3168 33.6572C33.275 34.6034 33.2871 35.5523 33.2763 36.4984C33.2763 36.5414 33.2898 36.5843 33.306 36.6823C33.3937 36.6045 33.4693 36.5629 33.5084 36.4984C33.7121 36.1656 33.9266 35.8368 34.0993 35.4878C34.6483 34.3739 35.2432 33.2868 36.0553 32.3365C37.5082 30.6361 39.2161 29.302 41.4433 28.745C41.9101 28.6282 42.3863 28.5437 42.8585 28.4457C42.8989 28.4377 42.9435 28.4457 43.0136 28.4457C42.9907 28.5276 42.9812 28.5907 42.9556 28.647C42.7128 29.1852 42.6318 29.7623 42.5995 30.3395C42.5441 31.3299 42.5253 32.3218 42.4902 33.3123C42.4888 33.3659 42.4794 33.4196 42.47 33.5069C42.3337 33.4908 42.2163 33.4706 42.0976 33.4639C41.1884 33.4049 40.2778 33.3794 39.382 33.5807C38.5605 33.7645 37.8199 34.1242 37.1656 34.6571C35.6884 35.8596 34.8264 37.4487 34.2355 39.2136C33.9036 40.2054 33.7404 41.2227 33.6959 42.2642C33.6487 43.3889 33.5893 44.5123 33.5462 45.637C33.387 49.76 33.3924 53.8843 33.4396 58.0086C33.4477 58.7092 33.5016 59.4111 33.5462 60.1117C33.5785 60.6177 33.735 61.0928 33.9293 61.5585C33.9414 61.5881 33.9414 61.6216 33.9482 61.6565L33.9468 61.6498Z" fill="#F61100"/>
<path d="M124.51 61.5074C122.338 61.1114 120.163 61.2134 117.963 61.5154C117.988 61.4349 118.001 61.3812 118.022 61.3329C118.382 60.4914 118.546 59.6069 118.583 58.6983C118.656 56.9495 118.744 55.2021 118.78 53.4533C118.837 50.7113 118.887 47.968 118.883 45.2247C118.879 42.2036 118.818 39.1825 118.767 36.1614C118.751 35.2487 118.705 34.3348 118.63 33.4235C118.566 32.6236 118.462 31.821 118.053 31.1056C117.883 30.809 117.661 30.5433 117.443 30.2373C117.532 30.2225 117.623 30.2024 117.716 30.1903C119.287 29.9997 120.858 29.7876 122.351 29.232C122.864 29.0414 123.345 28.7703 123.84 28.5341C123.928 28.4925 124.013 28.4442 124.135 28.3811C124.068 28.8737 124.002 29.3233 123.947 29.7742C123.797 30.9929 123.731 32.2169 123.728 33.4436C123.711 40.1448 123.691 46.846 123.691 53.5472C123.691 54.9739 123.747 56.4006 123.824 57.8259C123.89 59.0513 124.045 60.2686 124.524 61.4188C124.531 61.4349 124.519 61.459 124.51 61.506V61.5074Z" fill="#F61100"/>
<path d="M118.332 22.2302C118.367 21.4317 118.489 20.6425 118.75 19.8762C118.962 19.2548 119.387 18.879 120.013 18.6857C120.809 18.4401 121.585 18.4884 122.354 18.7796C122.703 18.9125 122.955 19.1554 123.144 19.4749C123.471 20.0265 123.589 20.6385 123.668 21.2585C123.78 22.1591 123.658 23.0382 123.349 23.8878C123.116 24.5293 122.734 25.0541 122.057 25.2983C121.389 25.5386 120.713 25.5439 120.043 25.3144C119.676 25.1883 119.367 24.9668 119.12 24.6648C118.661 24.1025 118.393 23.4663 118.361 22.7389C118.353 22.5725 118.343 22.4047 118.334 22.2302H118.332Z" fill="#F61100"/>
</g>
<defs>
<clipPath id="clip0_4515_3852">
<rect width="180.57" height="45" fill="white" transform="translate(0 17)"/>
</clipPath>
</defs>
</svg>
