<svg width="88" height="24" viewBox="0 0 88 24" fill="none" xmlns="http://www.w3.org/2000/svg">
<path d="M12.4911 12.6883C12.0943 12.6936 12.5657 12.8933 13.0849 12.9732C13.2287 12.8614 13.3592 12.7469 13.4737 12.6377C13.1515 12.7176 12.8213 12.7176 12.4911 12.6883Z" fill="#D60651"/>
<path d="M14.6267 12.1559C14.8637 11.8284 15.0368 11.4716 15.098 11.1014C15.0448 11.3651 14.901 11.5941 14.7678 11.8337C14.0249 12.3024 14.6986 11.5568 14.7678 11.2719C13.969 12.2784 14.6586 11.8763 14.6294 12.1586" fill="#D60651"/>
<path d="M15.4148 10.1029C15.4627 9.38655 15.2736 9.61289 15.2097 9.88717C15.2843 9.92711 15.3429 10.3931 15.4148 10.1029Z" fill="#D60651"/>
<path d="M10.9812 0.309082C11.1942 0.346362 11.4392 0.375653 11.4046 0.426247C11.6389 0.375653 11.6895 0.327722 10.9812 0.309082Z" fill="#D60651"/>
<path d="M11.4047 0.428711L11.2556 0.460665L11.3941 0.447351L11.4047 0.428711Z" fill="#D60651"/>
<path d="M18.0271 10.3744C18.051 11.0188 17.838 11.3304 17.6489 11.8842L17.3054 12.0547C17.0232 12.6005 17.3347 12.4008 17.1323 12.8375C16.693 13.229 15.7983 14.0598 15.5133 14.137C15.303 14.1317 15.6545 13.8894 15.6997 13.7962C15.1113 14.2009 15.2284 14.4033 14.3284 14.6483L14.3018 14.5897C12.0836 15.6335 9.00273 13.5645 9.04267 10.7446C9.01871 10.923 8.9761 10.8777 8.92551 10.9496C8.81101 9.49835 9.59654 8.03912 10.92 7.44265C12.2141 6.80091 13.7319 7.06453 14.6586 7.92995C14.15 7.26158 13.1354 6.55593 11.9345 6.61983C10.7575 6.63847 9.65512 7.38673 9.28765 8.19889C8.68585 8.57701 8.61396 9.66345 8.353 9.8605C7.99885 12.4594 9.01871 13.5805 10.7416 14.9039C11.0132 15.0876 10.8188 15.1143 10.8534 15.2527C10.2809 14.9838 9.75631 14.579 9.32493 14.0837C9.55394 14.4193 9.80158 14.7441 10.1211 14.9998C9.58057 14.816 8.85894 13.6923 8.64858 13.647C9.5779 15.314 12.4245 16.5708 13.9157 15.9451C13.226 15.9717 12.3499 15.9584 11.575 15.6735C11.2502 15.5057 10.8081 15.1595 10.8854 15.0956C12.9198 15.8545 15.0181 15.6708 16.7782 14.2595C17.2255 13.9107 17.7155 13.3168 17.8566 13.3089C17.6436 13.6284 17.8939 13.4633 17.7288 13.7456C18.1735 13.0266 17.5344 13.4527 18.1895 12.5047L18.4318 12.8375C18.3413 12.2411 19.1747 11.5141 19.0895 10.5715C19.2812 10.2839 19.3026 10.883 19.1002 11.5461C19.3824 10.8085 19.1747 10.6913 19.2466 10.0815C19.3239 10.2865 19.4277 10.5022 19.481 10.7179C19.2972 10.007 19.6674 9.51965 19.7606 9.10425C19.67 9.06431 19.4783 9.41847 19.433 8.57701C19.441 8.21221 19.5342 8.38529 19.5715 8.29475C19.4996 8.25215 19.3132 7.97255 19.1987 7.43732C19.2813 7.30951 19.4197 7.76485 19.5342 7.78349C19.4623 7.35744 19.3372 7.02991 19.3318 6.70238C19.0017 6.01271 19.2147 6.79558 18.9484 6.40681C18.5969 5.31239 19.2386 6.15384 19.2839 5.65589C19.8165 6.42811 20.12 7.62372 20.2585 8.11634C20.152 7.51188 19.9816 6.92872 19.7712 6.36154C19.9336 6.43077 19.5103 5.12066 19.9816 5.98608C19.4783 4.13808 17.83 2.40724 16.3149 1.59774C16.4986 1.76816 16.7329 1.98119 16.6504 2.01314C15.8968 1.56579 16.0273 1.52851 15.9208 1.33945C15.3056 1.08914 15.2657 1.36075 14.861 1.33945C13.7026 0.724332 13.4789 0.790903 12.4138 0.404793L12.4617 0.631133C11.6949 0.375502 11.567 0.726995 10.7389 0.631133C10.6883 0.591191 11.0052 0.487341 11.2661 0.450061C10.5232 0.548586 10.5578 0.303605 9.83353 0.476689C10.0119 0.351536 10.201 0.268989 10.3927 0.162476C9.78827 0.199755 8.94947 0.513969 9.20777 0.226383C8.22252 0.66575 6.46772 1.28353 5.48513 2.20753L5.45318 1.99983C5.00316 2.54038 3.48801 3.61616 3.36819 4.31649L3.24836 4.34312C3.01403 4.73988 2.86225 5.1899 2.67585 5.59731C2.36963 6.11922 2.22583 5.79968 2.2711 5.87957C1.6693 7.10181 1.3684 8.12966 1.11011 8.97377C1.29384 9.24805 1.11543 10.6327 1.18467 11.7405C0.881104 17.2099 5.02447 22.5222 9.55127 23.7471C10.2143 23.9841 11.2022 23.9762 12.041 24.0001C11.0504 23.7179 10.9226 23.851 9.95869 23.5128C9.26369 23.1853 9.10924 22.8098 8.61662 22.3838L8.81101 22.7273C7.8444 22.3838 8.24915 22.3039 7.46362 22.0536L7.67132 21.782C7.3571 21.758 6.84052 21.2547 6.69939 20.9751L6.35588 20.9885C5.94314 20.4799 5.72479 20.115 5.74077 19.8301L5.62893 20.0272C5.50377 19.8115 4.11378 18.1206 4.83541 18.5147C4.70226 18.3922 4.52385 18.315 4.32947 17.9635L4.47592 17.7957C4.12976 17.3484 3.83684 16.7759 3.86081 16.5868C4.04454 16.8371 4.17502 16.8824 4.30284 16.9276C3.42677 14.7548 3.37617 16.8078 2.71313 14.7148L2.85426 14.7042C2.74775 14.5417 2.68118 14.366 2.59597 14.1929L2.65721 13.5858C2.02612 12.8562 2.48146 10.4836 2.572 9.18414C2.63591 8.65424 3.09924 8.09238 3.45073 7.20832L3.23504 7.17104C3.64512 6.45474 5.57833 4.29519 6.47571 4.40702C6.90975 3.86114 6.3905 4.40702 6.30529 4.26856C7.25858 3.28331 7.55682 3.5709 8.20122 3.39515C8.89356 2.98241 7.60475 3.55492 7.93494 3.23804C9.13321 2.93182 8.78438 2.54304 10.3475 2.38594C10.5126 2.47914 9.96401 2.52973 9.82821 2.65222C10.8268 2.16226 12.989 2.2741 14.395 2.92383C16.0246 3.6854 17.854 5.93549 17.9285 8.0551L18.0111 8.0764C17.9685 8.91786 18.1389 9.89245 17.8433 10.7872L18.043 10.3638" fill="#D60651"/>
<path d="M8.14796 13.2316L8.09204 13.5112C8.353 13.8653 8.5607 14.2514 8.89622 14.5284C8.65656 14.0597 8.47815 13.8653 8.14796 13.2316Z" fill="#D60651"/>
<path d="M8.76565 13.2076C8.62718 13.0531 8.54464 12.8694 8.4541 12.6857C8.54197 13.0079 8.72305 13.2848 8.88814 13.5671L8.76565 13.2049" fill="#D60651"/>
<path d="M19.7048 10.8298L19.6462 10.9763C19.5397 11.7379 19.308 12.4914 18.9512 13.1891C19.3426 12.4515 19.5956 11.6473 19.7021 10.8298" fill="#D60651"/>
<path d="M11.0611 0.119827C11.3301 0.0213026 11.7215 0.0665707 12.0091 0C11.6363 0.0319539 11.2662 0.0505937 10.9014 0.0958618L11.0638 0.117164" fill="#D60651"/>
<path d="M1.61622 5.14197C1.67746 5.71448 1.18484 5.93815 1.72539 5.56003C2.01564 4.90764 1.61355 5.37896 1.61622 5.14197Z" fill="#D60651"/>
<path d="M0.979612 7.79672C1.10477 7.41328 1.12607 7.18427 1.174 6.96326C0.830494 7.40262 1.01423 7.49849 0.979612 7.79672Z" fill="#D60651"/>
<path d="M31.6709 11.5733C31.6709 11.5733 31.6416 15.9816 31.5888 17.1204C31.5359 18.042 31.4537 20.0319 29.4932 20.0319C27.5326 20.0319 26.9926 17.7191 26.8282 16.7154C26.6404 15.6001 26.6404 14.6726 26.6404 14.2676C26.6404 12.9645 26.7226 9.3134 29.7984 9.3134C30.7259 9.3134 31.2424 9.58341 31.6474 9.8006L31.6709 11.5674V11.5733ZM23.7817 14.7842C23.7817 22.4562 27.8613 22.4562 28.4601 22.4562C30.1447 22.4562 31.2366 21.5287 31.6944 19.9262L31.7472 22.3446C32.2638 22.3153 32.7803 22.2625 33.6256 22.2625C33.925 22.2625 34.1715 22.2625 34.3887 22.2918C34.6059 22.2918 34.8231 22.3153 35.0696 22.3446C34.6352 21.4759 34.3065 19.5153 34.3065 15.2714C34.3065 11.0274 34.3065 4.14786 34.6587 2.02295C33.6784 2.48667 32.839 2.78604 30.9841 2.9504C31.7179 3.73697 31.7179 4.14786 31.7179 7.73439C31.2013 7.57003 30.5498 7.38219 29.4345 7.38219C24.5683 7.38219 23.7759 11.6261 23.7759 14.7842" fill="black"/>
<path d="M38.5327 13.3929C38.5621 11.133 39.0199 9.11962 40.9511 9.11962C43.0702 9.11962 43.2345 11.4559 43.1817 13.3929H38.5327ZM45.876 13.6688C45.876 10.4873 45.2538 7.35864 41.227 7.35864C35.6799 7.35864 35.6799 13.5103 35.6799 14.8134C35.6799 20.337 38.157 22.5089 42.3188 22.5089C44.1678 22.5089 45.0659 22.2389 45.5531 22.098C45.5238 21.1177 45.6647 20.4955 45.829 19.6503C45.2597 20.0025 44.52 20.4662 42.8882 20.4662C38.6442 20.4662 38.5914 16.6038 38.5914 15.2713H45.829L45.8819 13.6688" fill="black"/>
<path d="M54.7278 14.8367C54.7278 17.3667 54.2641 20.7653 51.112 20.7653C50.6776 20.7653 50.1317 20.6832 49.7795 20.601C49.7267 19.6207 49.7267 17.936 49.7267 15.9755C49.7267 13.6334 49.9732 12.4124 50.161 11.8137C50.7304 9.88251 52.0101 9.85903 52.2566 9.85903C54.3228 9.85903 54.7337 12.7177 54.7337 14.8367H54.7278ZM46.9208 17.801C46.9208 19.8144 46.9208 20.9591 46.5921 21.8278C47.7074 22.2622 49.0927 22.5087 50.7539 22.5087C51.8164 22.5087 54.8863 22.5087 56.5475 19.11C57.3341 17.531 57.61 15.412 57.61 13.8036C57.61 12.8233 57.4984 10.6749 56.7119 9.31313C55.9488 8.03348 54.7278 7.38192 53.4247 7.38192C50.8126 7.38192 50.0495 9.55966 49.6445 10.6749C49.6445 9.28965 49.668 4.44696 49.891 1.96985C48.1242 2.78577 47.0324 2.92078 45.8643 3.0323C46.9267 3.46668 46.9267 5.26288 46.9267 11.1093V17.801" fill="black"/>
<path d="M62.8402 22.3386C62.2943 22.2564 61.9128 22.2036 61.1262 22.2036C60.2575 22.2036 59.6587 22.2564 59.0307 22.3386C59.3007 21.822 59.4122 21.5755 59.4944 19.8086C59.6059 17.3902 59.6294 10.9157 59.4416 9.55388C59.3065 8.52078 59.06 8.35642 58.6785 8.0864C60.909 7.86922 61.5371 7.70486 62.5702 7.21765C62.353 8.41512 62.3237 9.01385 62.3237 10.8335C62.2709 20.2195 62.2415 21.2233 62.8402 22.3386Z" fill="black"/>
<path d="M71.5449 14.6431C71.4921 16.3571 71.4628 17.5546 70.999 18.5055C70.4297 19.7323 69.4787 20.0845 68.7685 20.0845C67.1366 20.0845 66.7844 18.7227 66.7844 17.3902C66.7844 14.8368 69.0678 14.6431 70.1009 14.6431H71.5449ZM64.0667 17.9889C64.0667 19.7029 64.5832 21.417 66.1094 22.1507C66.7903 22.4501 67.4712 22.4501 67.6884 22.4501C70.189 22.4501 71.0343 20.601 71.5508 19.4564C71.5215 20.6539 71.5508 21.3876 71.633 22.3385C72.1202 22.3092 72.6133 22.2564 73.4292 22.2564C73.8929 22.2564 74.3273 22.3092 74.791 22.3385C74.4916 21.8748 74.3273 21.6048 74.2451 20.5423C74.1923 19.5092 74.1923 18.4761 74.1923 17.0321L74.2216 11.485C74.2216 9.41883 73.6757 7.3761 69.5961 7.3761C66.9018 7.3761 65.3287 8.19202 64.5362 8.60291C64.865 9.20164 65.135 9.7182 65.3815 10.8863C66.444 9.95886 67.8293 9.47166 69.2439 9.47166C71.5038 9.47166 71.5038 10.9685 71.5038 13.0875C70.9873 13.0641 70.5529 13.0054 69.8133 13.0054C66.3559 13.0054 64.0725 14.3378 64.0725 17.983" fill="black"/>
<path d="M87.2122 19.6501C87.2416 20.5775 87.2416 21.5519 87.6173 22.3444C87.0185 22.2915 86.6663 22.2094 85.5511 22.2094C84.8995 22.2094 84.5473 22.2622 84.0249 22.3444C84.1305 21.9922 84.1892 21.8572 84.2421 21.3934C84.3242 20.7712 84.3771 18.6757 84.3771 17.9419V15.007C84.3771 13.7273 84.3771 11.8783 84.2949 11.2267C84.2421 10.763 84.1071 9.51271 82.528 9.51271C80.949 9.51271 80.4618 10.6515 80.2681 11.5789C80.0509 12.5299 80.0509 13.563 80.0509 17.5897C80.0744 21.0706 80.0744 21.3993 80.3503 22.3502C79.8866 22.2974 79.3172 22.2446 78.5013 22.2446C77.8497 22.2446 77.4153 22.2681 76.8694 22.3502C77.0573 21.9159 77.1688 21.6987 77.2216 20.1725C77.2745 18.6757 77.386 11.3324 77.1395 9.58902C77.0044 8.52656 76.7344 8.2859 76.4351 8.01001C78.6363 7.89848 79.3465 7.54629 80.0275 7.19409V10.0762C80.3562 9.23095 81.0312 7.35258 83.7549 7.35258C87.1535 7.35258 87.1829 9.82969 87.2122 11.4615V19.6501Z" fill="black"/>
<path d="M63.0689 3.36696L60.8148 5.62102L58.5608 3.36696L60.8148 1.11292L63.0689 3.36696Z" fill="#D60651"/>
</svg>
