<svg width="153" height="80" viewBox="0 0 153 80" fill="none" xmlns="http://www.w3.org/2000/svg">
<path d="M18.4125 40.9178C17.8834 40.9249 18.5119 41.1912 19.2042 41.2977C19.3959 41.1486 19.5699 40.9959 19.7226 40.8503C19.293 40.9569 18.8527 40.9569 18.4125 40.9178Z" fill="#D60651"/>
<path d="M21.26 40.208C21.576 39.7713 21.8067 39.2955 21.8884 38.802C21.8174 39.1535 21.6257 39.4588 21.4482 39.7784C20.4576 40.4032 21.3558 39.4091 21.4482 39.0292C20.383 40.3713 21.3026 39.8352 21.2635 40.2115" fill="#D60651"/>
<path d="M22.3107 37.4704C22.3746 36.5153 22.1226 36.8171 22.0374 37.1828C22.1368 37.2361 22.2149 37.8574 22.3107 37.4704Z" fill="#D60651"/>
<path d="M16.3992 24.4121C16.6832 24.4618 17.0098 24.5009 16.9637 24.5683C17.2761 24.5009 17.3436 24.437 16.3992 24.4121Z" fill="#D60651"/>
<path d="M16.9642 24.5715L16.7654 24.6141L16.95 24.5964L16.9642 24.5715Z" fill="#D60651"/>
<path d="M25.7939 37.8327C25.8258 38.6919 25.5418 39.1073 25.2897 39.8458L24.8317 40.073C24.4554 40.8008 24.8708 40.5345 24.6009 41.1168C24.0151 41.6387 22.8222 42.7464 22.4423 42.8494C22.1618 42.8423 22.6304 42.5192 22.6908 42.395C21.9062 42.9346 22.0624 43.2045 20.8623 43.5311L20.8268 43.453C17.8693 44.8447 13.7615 42.0861 13.8147 38.3262C13.7828 38.5641 13.726 38.5037 13.6585 38.5996C13.5059 36.6646 14.5532 34.7189 16.3178 33.9237C18.0433 33.068 20.067 33.4195 21.3026 34.5734C20.6245 33.6822 19.2717 32.7414 17.6705 32.8266C16.1012 32.8514 14.6313 33.8491 14.1414 34.932C13.339 35.4361 13.2431 36.8847 12.8952 37.1474C12.423 40.6126 13.7828 42.1074 16.0799 43.8719C16.4421 44.1169 16.1829 44.1524 16.229 44.337C15.4657 43.9784 14.7663 43.4388 14.1911 42.7784C14.4964 43.2258 14.8266 43.6589 15.2527 43.9997C14.5319 43.7548 13.5698 42.2565 13.2893 42.1961C14.5284 44.4187 18.3238 46.0945 20.312 45.2601C19.3925 45.2957 18.2244 45.2779 17.1912 44.898C16.758 44.6743 16.1687 44.2128 16.2716 44.1276C18.9842 45.1394 21.7819 44.8945 24.1287 43.0127C24.7252 42.5476 25.3785 41.7559 25.5666 41.7452C25.2826 42.1713 25.6163 41.9512 25.3962 42.3275C25.9891 41.3689 25.137 41.937 26.0104 40.673L26.3335 41.1168C26.2128 40.3215 27.3241 39.3522 27.2105 38.0954C27.4661 37.712 27.4945 38.5108 27.2247 39.3949C27.601 38.4114 27.3241 38.2552 27.42 37.4421C27.5229 37.7155 27.6614 38.0031 27.7324 38.2907C27.4874 37.3427 27.9809 36.693 28.1052 36.1391C27.9845 36.0859 27.7288 36.5581 27.6685 35.4361C27.6791 34.9497 27.8034 35.1805 27.8531 35.0598C27.7572 35.003 27.5087 34.6302 27.3561 33.9165C27.4661 33.7461 27.6507 34.3533 27.8034 34.3781C27.7075 33.81 27.5407 33.3733 27.5336 32.9366C27.0933 32.0171 27.3774 33.0609 27.0223 32.5425C26.5537 31.0833 27.4093 32.2052 27.4697 31.5413C28.1797 32.5709 28.5845 34.1651 28.7691 34.8219C28.6271 34.016 28.3999 33.2384 28.1194 32.4822C28.336 32.5745 27.7714 30.8277 28.3999 31.9816C27.7288 29.5176 25.5311 27.2098 23.5109 26.1305C23.7559 26.3577 24.0684 26.6417 23.9583 26.6843C22.9535 26.0879 23.1275 26.0382 22.9855 25.7861C22.1653 25.4523 22.1121 25.8145 21.5724 25.7861C20.028 24.9659 19.7297 25.0547 18.3096 24.5399L18.3735 24.8417C17.351 24.5008 17.1805 24.9695 16.0764 24.8417C16.0089 24.7884 16.4314 24.6499 16.7793 24.6002C15.7888 24.7316 15.8349 24.405 14.8692 24.6357C15.1071 24.4689 15.3592 24.3588 15.6148 24.2168C14.8089 24.2665 13.6905 24.6855 14.0349 24.302C12.7212 24.8878 10.3815 25.7115 9.07138 26.9435L9.02878 26.6666C8.42875 27.3873 6.40856 28.8217 6.24879 29.7555L6.08903 29.791C5.77659 30.32 5.57421 30.92 5.32569 31.4632C4.91739 32.1591 4.72566 31.733 4.78602 31.8396C3.98363 33.4692 3.58243 34.8397 3.23804 35.9651C3.48302 36.3308 3.24514 38.1771 3.33745 39.654C2.9327 46.9466 8.45716 54.0297 14.4929 55.6629C15.3769 55.9789 16.6941 55.9682 17.8125 56.0002C16.4918 55.6238 16.3213 55.8014 15.0361 55.3504C14.1094 54.9137 13.9035 54.4131 13.2467 53.8451L13.5059 54.3031C12.2171 53.8451 12.7567 53.7386 11.7093 53.4048L11.9863 53.0427C11.5673 53.0107 10.8785 52.3397 10.6904 51.9669L10.2324 51.9846C9.68205 51.3065 9.39092 50.8201 9.41222 50.4402L9.2631 50.7029C9.09623 50.4154 7.24291 48.1608 8.20508 48.6863C8.02756 48.523 7.78968 48.42 7.5305 47.9514L7.72577 47.7277C7.26422 47.1312 6.87367 46.3679 6.90562 46.1158C7.1506 46.4495 7.32457 46.5099 7.49499 46.5703C6.3269 43.6731 6.25945 46.4105 5.37539 43.6199L5.56356 43.6057C5.42155 43.3891 5.33279 43.1547 5.21917 42.924L5.30083 42.1145C4.45938 41.1417 5.0665 37.9782 5.18722 36.2456C5.27243 35.5391 5.8902 34.79 6.35886 33.6112L6.07127 33.5615C6.61804 32.6064 9.19565 29.7271 10.3921 29.8762C10.9709 29.1483 10.2785 29.8762 10.1649 29.6915C11.436 28.3779 11.8336 28.7613 12.6928 28.527C13.6159 27.9767 11.8975 28.74 12.3378 28.3175C13.9355 27.9092 13.4704 27.3909 15.5544 27.1814C15.7746 27.3057 15.0432 27.3731 14.8621 27.5364C16.1935 26.8832 19.0765 27.0323 20.9511 27.8986C23.1239 28.914 25.5631 31.9141 25.6625 34.7402L25.7726 34.7687C25.7158 35.8906 25.943 37.19 25.5489 38.383L25.8152 37.8185" fill="#D60651"/>
<path d="M12.6217 41.6421L12.5471 42.0149C12.8951 42.4871 13.172 43.0019 13.6193 43.3711C13.2998 42.7463 13.0619 42.4871 12.6217 41.6421Z" fill="#D60651"/>
<path d="M13.4454 41.6102C13.2608 41.4043 13.1507 41.1593 13.03 40.9143C13.1472 41.3439 13.3886 41.7132 13.6087 42.0895L13.4454 41.6066" fill="#D60651"/>
<path d="M28.0306 38.4397L27.9525 38.635C27.8105 39.6504 27.5016 40.6552 27.0259 41.5854C27.5478 40.6019 27.8851 39.5297 28.0271 38.4397" fill="#D60651"/>
<path d="M16.506 24.1598C16.8646 24.0284 17.3865 24.0888 17.7699 24C17.2729 24.0426 16.7794 24.0675 16.293 24.1278L16.5095 24.1562" fill="#D60651"/>
<path d="M3.91277 30.856C3.99443 31.6193 3.3376 31.9175 4.05833 31.4134C4.44533 30.5435 3.90921 31.1719 3.91277 30.856Z" fill="#D60651"/>
<path d="M3.06396 34.3957C3.23083 33.8844 3.25924 33.5791 3.32314 33.2844C2.86514 33.8702 3.11012 33.9981 3.06396 34.3957Z" fill="#D60651"/>
<path d="M43.9854 39.431C43.9854 39.431 43.9463 45.3088 43.8759 46.8271C43.8054 48.0559 43.6958 50.7091 41.0818 50.7091C38.4677 50.7091 37.7477 47.6254 37.5285 46.2871C37.2781 44.8 37.2781 43.5634 37.2781 43.0234C37.2781 41.2859 37.3877 36.4178 41.4888 36.4178C42.7254 36.4178 43.4141 36.7778 43.9541 37.0674L43.9854 39.4232V39.431ZM33.4666 43.7121C33.4666 53.9414 38.906 53.9414 39.7043 53.9414C41.9505 53.9414 43.4063 52.7048 44.0167 50.5682L44.0872 53.7927C44.7759 53.7536 45.4646 53.6831 46.5917 53.6831C46.9908 53.6831 47.3195 53.6832 47.6091 53.7223C47.8987 53.7223 48.1883 53.7536 48.517 53.7927C47.9378 52.6344 47.4995 50.0203 47.4995 44.3617C47.4995 38.7032 47.4995 29.5305 47.9691 26.6973C46.6621 27.3156 45.5429 27.7147 43.0697 27.9339C44.048 28.9826 44.048 29.5305 44.048 34.3125C43.3593 34.0933 42.4906 33.8429 41.0035 33.8429C34.5153 33.8429 33.4587 39.5015 33.4587 43.7121" fill="black"/>
<path d="M53.1347 41.8572C53.1739 38.844 53.7844 36.1595 56.3593 36.1595C59.1847 36.1595 59.4038 39.2744 59.3334 41.8572H53.1347ZM62.9257 42.225C62.9257 37.9831 62.0961 33.8115 56.7271 33.8115C49.3311 33.8115 49.3311 42.0137 49.3311 43.7512C49.3311 51.116 52.6339 54.0118 58.1829 54.0118C60.6482 54.0118 61.8457 53.6518 62.4953 53.4639C62.4561 52.1569 62.644 51.3273 62.8631 50.2003C62.104 50.6699 61.1178 51.2882 58.942 51.2882C53.2835 51.2882 53.213 46.1383 53.213 44.3617H62.8631L62.9336 42.225" fill="black"/>
<path d="M74.728 43.7822C74.728 47.1555 74.1097 51.687 69.9068 51.687C69.3277 51.687 68.5998 51.5774 68.1302 51.4679C68.0598 50.1608 68.0598 47.9146 68.0598 45.3006C68.0598 42.1778 68.3885 40.5499 68.6389 39.7516C69.3981 37.1766 71.1043 37.1453 71.433 37.1453C74.1879 37.1453 74.7358 40.9568 74.7358 43.7822H74.728ZM64.3187 47.7346C64.3187 50.4191 64.3187 51.9453 63.8804 53.1036C65.3674 53.6828 67.2145 54.0115 69.4294 54.0115C70.846 54.0115 74.9393 54.0115 77.1542 49.4799C78.203 47.3746 78.5708 44.5492 78.5708 42.4047C78.5708 41.0977 78.4221 38.2332 77.3733 36.4175C76.3559 34.7113 74.728 33.8425 72.9905 33.8425C69.5077 33.8425 68.4902 36.7462 67.9502 38.2332C67.9502 36.3862 67.9815 29.9293 68.2789 26.6265C65.9231 27.7144 64.4674 27.8944 62.9099 28.0431C64.3265 28.6222 64.3265 31.0171 64.3265 38.8124V47.7346" fill="black"/>
<path d="M85.5446 53.7847C84.8167 53.6751 84.308 53.6047 83.2593 53.6047C82.1009 53.6047 81.3026 53.6751 80.4652 53.7847C80.8252 53.096 80.9739 52.7672 81.0835 50.4114C81.2322 47.1869 81.2635 38.5543 81.0131 36.7385C80.833 35.361 80.5043 35.1419 79.9956 34.7819C82.9697 34.4923 83.8071 34.2731 85.1846 33.6235C84.895 35.2201 84.8559 36.0185 84.8559 38.4447C84.7854 50.9593 84.7463 52.2976 85.5446 53.7847Z" fill="black"/>
<path d="M97.1507 43.524C97.0803 45.8093 97.0411 47.4059 96.4228 48.6738C95.6637 50.3096 94.3958 50.7792 93.4487 50.7792C91.273 50.7792 90.8034 48.9634 90.8034 47.1868C90.8034 43.7822 93.8479 43.524 95.2254 43.524H97.1507ZM87.1797 47.9851C87.1797 50.2704 87.8684 52.5558 89.9033 53.5341C90.8112 53.9332 91.7191 53.9332 92.0087 53.9332C95.3428 53.9332 96.4698 51.4679 97.1585 49.9417C97.1194 51.5383 97.1585 52.5167 97.2681 53.7845C97.9177 53.7454 98.5751 53.675 99.663 53.675C100.281 53.675 100.86 53.7454 101.479 53.7845C101.08 53.1663 100.86 52.8062 100.751 51.3896C100.68 50.0121 100.68 48.6347 100.68 46.7094L100.72 39.3133C100.72 36.5583 99.9917 33.8347 94.5523 33.8347C90.9599 33.8347 88.8624 34.9226 87.8058 35.4705C88.2441 36.2688 88.6041 36.9575 88.9328 38.515C90.3494 37.2784 92.1965 36.6288 94.0827 36.6288C97.0959 36.6288 97.0959 38.6246 97.0959 41.4499C96.4072 41.4186 95.828 41.3404 94.8419 41.3404C90.232 41.3404 87.1875 43.117 87.1875 47.9773" fill="black"/>
<path d="M118.04 50.1999C118.08 51.4365 118.08 52.7357 118.58 53.7923C117.782 53.7219 117.313 53.6123 115.826 53.6123C114.957 53.6123 114.487 53.6827 113.791 53.7923C113.931 53.3227 114.01 53.1427 114.08 52.5244C114.19 51.6948 114.26 48.9007 114.26 47.9224V44.0092C114.26 42.303 114.26 39.8376 114.151 38.9689C114.08 38.3506 113.9 36.6835 111.795 36.6835C109.69 36.6835 109.04 38.2019 108.782 39.4385C108.492 40.7064 108.492 42.0838 108.492 47.4528C108.523 52.094 108.523 52.5322 108.891 53.8001C108.273 53.7297 107.514 53.6593 106.426 53.6593C105.557 53.6593 104.978 53.6906 104.25 53.8001C104.501 53.221 104.649 52.9314 104.72 50.8965C104.79 48.9007 104.939 39.1097 104.61 36.7853C104.43 35.3687 104.07 35.0478 103.671 34.6799C106.606 34.5312 107.553 34.0616 108.461 33.592V37.4349C108.899 36.3078 109.799 33.8034 113.431 33.8034C117.962 33.8034 118.001 37.1062 118.04 39.2819V50.1999Z" fill="black"/>
<path d="M85.8494 28.4893L82.844 31.4947L79.8386 28.4893L82.844 25.4839L85.8494 28.4893Z" fill="#D60651"/>
</svg>
