<svg width="167" height="80" viewBox="0 0 167 80" fill="none" xmlns="http://www.w3.org/2000/svg">
<g clip-path="url(#clip0_4450_18326)">
<path d="M24.6581 40.7904C23.9141 40.8004 24.7979 41.1749 25.7715 41.3246C26.0411 41.115 26.2857 40.9003 26.5004 40.6956C25.8963 40.8453 25.2772 40.8453 24.6581 40.7904Z" fill="#D60651"/>
<path d="M28.6621 39.7923C29.1064 39.1782 29.431 38.5092 29.5458 37.8152C29.4459 38.3095 29.1763 38.7388 28.9267 39.1882C27.5337 40.0669 28.7969 38.669 28.9267 38.1347C27.4288 40.022 28.722 39.2681 28.6671 39.7973" fill="#D60651"/>
<path d="M30.1401 35.9429C30.2299 34.5999 29.8754 35.0242 29.7556 35.5385C29.8954 35.6134 30.0053 36.4871 30.1401 35.9429Z" fill="#D60651"/>
<path d="M21.8269 17.5796C22.2263 17.6495 22.6857 17.7044 22.6208 17.7993C23.0601 17.7044 23.155 17.6145 21.8269 17.5796Z" fill="#D60651"/>
<path d="M22.6211 17.8037L22.3416 17.8636L22.6012 17.8387L22.6211 17.8037Z" fill="#D60651"/>
<path d="M35.038 36.452C35.0829 37.6603 34.6835 38.2444 34.329 39.2829L33.6849 39.6024C33.1557 40.626 33.7399 40.2515 33.3604 41.0703C32.5366 41.8043 30.859 43.362 30.3248 43.5068C29.9304 43.4968 30.5894 43.0425 30.6743 42.8677C29.5709 43.6266 29.7906 44.0061 28.103 44.4654L28.0531 44.3556C23.8941 46.3127 18.1174 42.4334 18.1923 37.146C18.1474 37.4805 18.0675 37.3956 17.9727 37.5304C17.758 34.8094 19.2308 32.0733 21.7122 30.9549C24.1387 29.7517 26.9846 30.246 28.7221 31.8686C27.7685 30.6154 25.8662 29.2924 23.6145 29.4122C21.4077 29.4471 19.3407 30.8501 18.6517 32.3729C17.5233 33.0819 17.3885 35.1189 16.8992 35.4884C16.2352 40.3613 18.1474 42.4633 21.3777 44.9447C21.887 45.2892 21.5225 45.3392 21.5874 45.5988C20.514 45.0945 19.5304 44.3356 18.7216 43.4069C19.151 44.036 19.6153 44.6452 20.2144 45.1245C19.2009 44.78 17.8478 42.673 17.4534 42.5881C19.1959 45.7136 24.5332 48.0702 27.3291 46.8969C26.036 46.9468 24.3934 46.9219 22.9405 46.3876C22.3314 46.0731 21.5026 45.424 21.6473 45.3042C25.4618 46.7271 29.3961 46.3826 32.6964 43.7365C33.5352 43.0824 34.4538 41.969 34.7184 41.954C34.319 42.5532 34.7883 42.2436 34.4788 42.7729C35.3126 41.4248 34.1143 42.2237 35.3425 40.4462L35.7969 41.0703C35.6271 39.9519 37.1899 38.5889 37.0301 36.8215C37.3896 36.2822 37.4295 37.4056 37.0501 38.6488C37.5793 37.2658 37.1899 37.0461 37.3247 35.9028C37.4695 36.2872 37.6642 36.6917 37.764 37.0961C37.4195 35.763 38.1135 34.8493 38.2883 34.0704C38.1185 33.9956 37.759 34.6596 37.6742 33.0819C37.6891 32.3979 37.8639 32.7224 37.9338 32.5526C37.799 32.4728 37.4495 31.9485 37.2348 30.945C37.3896 30.7053 37.6492 31.5591 37.8639 31.594C37.7291 30.7952 37.4944 30.1811 37.4844 29.567C36.8653 28.2738 37.2648 29.7417 36.7655 29.0128C36.1064 26.9607 37.3097 28.5384 37.3946 27.6048C38.3931 29.0527 38.9623 31.2945 39.2219 32.2181C39.0222 31.0848 38.7027 29.9913 38.3083 28.9279C38.6128 29.0577 37.819 26.6012 38.7027 28.2239C37.759 24.7589 34.6685 21.5136 31.8276 19.9958C32.1721 20.3153 32.6115 20.7148 32.4567 20.7747C31.0438 19.9359 31.2884 19.866 31.0887 19.5115C29.9354 19.0422 29.8605 19.5514 29.1016 19.5115C26.9297 18.3582 26.5103 18.483 24.5132 17.759L24.6031 18.1834C23.1651 17.7041 22.9255 18.3632 21.3727 18.1834C21.2779 18.1085 21.872 17.9138 22.3613 17.8439C20.9683 18.0286 21.0332 17.5693 19.6752 17.8938C20.0097 17.6592 20.3642 17.5044 20.7237 17.3047C19.5903 17.3746 18.0176 17.9637 18.5019 17.4245C16.6546 18.2483 13.3643 19.4066 11.522 21.1391L11.4621 20.7497C10.6183 21.7632 7.7774 23.7803 7.55272 25.0934L7.32805 25.1434C6.88869 25.8873 6.6041 26.7311 6.2546 27.495C5.68043 28.4735 5.41082 27.8744 5.4957 28.0242C4.36733 30.3159 3.80315 32.2431 3.31885 33.8258C3.66335 34.3401 3.32883 36.9363 3.45865 39.0133C2.88947 49.2685 10.6582 59.2291 19.146 61.5257C20.3892 61.9701 22.2415 61.9551 23.8142 62.0001C21.9569 61.4708 21.7172 61.7205 19.9099 61.0864C18.6067 60.4723 18.3172 59.7683 17.3935 58.9694L17.758 59.6135C15.9456 58.9694 16.7045 58.8197 15.2316 58.3503L15.6211 57.8411C15.0319 57.7961 14.0633 56.8525 13.7987 56.3283L13.1546 56.3532C12.3807 55.3996 11.9713 54.7156 12.0013 54.1814L11.7916 54.5508C11.5569 54.1464 8.9507 50.976 10.3037 51.7149C10.0541 51.4853 9.71959 51.3405 9.35512 50.6814L9.62972 50.3669C8.98066 49.5281 8.43145 48.4546 8.47639 48.1002C8.82089 48.5695 9.06554 48.6544 9.30519 48.7392C7.66257 44.6651 7.5677 48.5146 6.3245 44.5902L6.58912 44.5703C6.38941 44.2657 6.26459 43.9362 6.10482 43.6116L6.21965 42.4733C5.03636 41.1053 5.89013 36.6567 6.05988 34.2202C6.17971 33.2267 7.04845 32.1732 7.7075 30.5156L7.30309 30.4457C8.07197 29.1026 11.6967 25.0535 13.3793 25.2632C14.1931 24.2397 13.2195 25.2632 13.0598 25.0036C14.8472 23.1562 15.4064 23.6954 16.6146 23.3659C17.9127 22.592 15.4962 23.6655 16.1153 23.0713C18.3621 22.4972 17.708 21.7682 20.6388 21.4737C20.9484 21.6484 19.9198 21.7433 19.6652 21.9729C21.5375 21.0543 25.5916 21.264 28.2278 22.4822C31.2834 23.9101 34.7134 28.129 34.8532 32.1033L35.008 32.1432C34.9281 33.721 35.2477 35.5483 34.6935 37.2259L35.0679 36.432" fill="#D60651"/>
<path d="M16.5145 41.8091L16.4097 42.3333C16.899 42.9974 17.2884 43.7213 17.9175 44.2406C17.4681 43.3618 17.1336 42.9974 16.5145 41.8091Z" fill="#D60651"/>
<path d="M17.673 41.7642C17.4134 41.4746 17.2586 41.1301 17.0889 40.7856C17.2536 41.3898 17.5931 41.909 17.9027 42.4383L17.673 41.7592" fill="#D60651"/>
<path d="M38.1837 37.3059L38.0739 37.5805C37.8742 39.0084 37.4398 40.4214 36.7708 41.7295C37.5047 40.3465 37.979 38.8387 38.1787 37.3059" fill="#D60651"/>
<path d="M21.9768 17.2247C22.4811 17.0399 23.215 17.1248 23.7542 17C23.0553 17.0599 22.3613 17.0949 21.6772 17.1797L21.9818 17.2197" fill="#D60651"/>
<path d="M4.26752 26.6414C4.38236 27.7148 3.45869 28.1342 4.47223 27.4252C5.01644 26.202 4.26253 27.0857 4.26752 26.6414Z" fill="#D60651"/>
<path d="M3.07408 31.6189C3.30874 30.8999 3.34868 30.4706 3.43855 30.0562C2.79448 30.88 3.13898 31.0597 3.07408 31.6189Z" fill="#D60651"/>
<path d="M60.6198 38.6998C60.6198 38.6998 60.5648 46.9654 60.4657 49.1006C60.3667 50.8285 60.2126 54.5596 56.5366 54.5596C52.8605 54.5596 51.848 50.2232 51.5398 48.3411C51.1876 46.25 51.1876 44.511 51.1876 43.7516C51.1876 41.3083 51.3417 34.4625 57.1089 34.4625C58.8478 34.4625 59.8164 34.9688 60.5758 35.376L60.6198 38.6888V38.6998ZM45.8277 44.7201C45.8277 59.1051 53.4769 59.1051 54.5995 59.1051C57.7582 59.1051 59.8054 57.3661 60.6638 54.3615L60.7629 58.896C61.7314 58.8409 62.6999 58.7419 64.2848 58.7419C64.8461 58.7419 65.3084 58.7419 65.7156 58.7969C66.1228 58.7969 66.5301 58.8409 66.9923 58.896C66.1779 57.2671 65.5615 53.591 65.5615 45.6336C65.5615 37.6763 65.5615 24.7772 66.2219 20.793C64.3839 21.6624 62.81 22.2238 59.3321 22.5319C60.7078 24.0067 60.7078 24.7772 60.7078 31.5019C59.7393 31.1937 58.5176 30.8415 56.4265 30.8415C47.3025 30.8415 45.8167 38.7989 45.8167 44.7201" fill="black"/>
<path d="M73.4859 42.1116C73.5409 37.8743 74.3994 34.0992 78.0204 34.0992C81.9936 34.0992 82.3018 38.4796 82.2027 42.1116H73.4859ZM87.2545 42.6289C87.2545 36.6636 86.0878 30.7974 78.5377 30.7974C68.137 30.7974 68.137 42.3317 68.137 44.7751C68.137 55.1318 72.7815 59.204 80.5848 59.204C84.0517 59.204 85.7357 58.6977 86.6492 58.4336C86.5941 56.5956 86.8583 55.4289 87.1664 53.8441C86.0989 54.5044 84.7121 55.3739 81.6524 55.3739C73.695 55.3739 73.596 48.1319 73.596 45.6335H87.1664L87.2655 42.6289" fill="black"/>
<path d="M103.852 44.8186C103.852 49.5623 102.982 55.9348 97.0718 55.9348C96.2574 55.9348 95.2338 55.7807 94.5735 55.6266C94.4744 53.7886 94.4744 50.6298 94.4744 46.9538C94.4744 42.5624 94.9367 40.2731 95.2889 39.1505C96.3564 35.5295 98.7558 35.4855 99.218 35.4855C103.092 35.4855 103.863 40.8455 103.863 44.8186H103.852ZM89.2135 50.3767C89.2135 54.1518 89.2135 56.298 88.5972 57.9269C90.6883 58.7413 93.2858 59.2036 96.4005 59.2036C98.3926 59.2036 104.149 59.2036 107.263 52.8311C108.738 49.8704 109.256 45.8972 109.256 42.8816C109.256 41.0436 109.046 37.0153 107.572 34.4619C106.141 32.0626 103.852 30.8409 101.408 30.8409C96.5105 30.8409 95.0797 34.9242 94.3203 37.0153C94.3203 34.4179 94.3643 25.3379 94.7826 20.6934C91.4698 22.2232 89.4226 22.4763 87.2324 22.6855C89.2245 23.4999 89.2245 26.8678 89.2245 37.8298V50.3767" fill="black"/>
<path d="M119.062 58.8846C118.039 58.7305 117.323 58.6314 115.849 58.6314C114.22 58.6314 113.097 58.7305 111.919 58.8846C112.426 57.916 112.635 57.4538 112.789 54.141C112.998 49.6065 113.042 37.4668 112.69 34.9134C112.437 32.9763 111.974 32.6681 111.259 32.1619C115.441 31.7546 116.619 31.4465 118.556 30.533C118.149 32.7782 118.094 33.9008 118.094 37.3127C117.995 54.9114 117.94 56.7934 119.062 58.8846Z" fill="black"/>
<path d="M135.383 44.4556C135.284 47.6694 135.229 49.9146 134.36 51.6976C133.292 53.9978 131.509 54.6582 130.177 54.6582C127.118 54.6582 126.457 52.1048 126.457 49.6064C126.457 44.8188 130.739 44.4556 132.676 44.4556H135.383ZM121.362 50.729C121.362 53.9428 122.33 57.1566 125.192 58.5323C126.468 59.0936 127.745 59.0936 128.152 59.0936C132.841 59.0936 134.426 55.6267 135.394 53.4806C135.339 55.7258 135.394 57.1015 135.548 58.8845C136.462 58.8295 137.386 58.7304 138.916 58.7304C139.786 58.7304 140.6 58.8295 141.47 58.8845C140.908 58.0151 140.6 57.5088 140.446 55.5167C140.347 53.5796 140.347 51.6425 140.347 48.935L140.402 38.5343C140.402 34.6602 139.378 30.8301 131.729 30.8301C126.678 30.8301 123.728 32.3599 122.242 33.1303C122.858 34.253 123.365 35.2215 123.827 37.4117C125.819 35.6727 128.416 34.7592 131.069 34.7592C135.306 34.7592 135.306 37.5658 135.306 41.539C134.338 41.4949 133.523 41.3849 132.137 41.3849C125.654 41.3849 121.373 43.8833 121.373 50.718" fill="black"/>
<path d="M164.76 53.8436C164.815 55.5826 164.815 57.4096 165.519 58.8954C164.396 58.7964 163.736 58.6423 161.645 58.6423C160.423 58.6423 159.763 58.7413 158.783 58.8954C158.981 58.235 159.091 57.9819 159.191 57.1124C159.345 55.9458 159.444 52.0166 159.444 50.6409V45.1378C159.444 42.7385 159.444 39.2716 159.29 38.0499C159.191 37.1804 158.937 34.8362 155.977 34.8362C153.016 34.8362 152.103 36.9713 151.739 38.7103C151.332 40.4933 151.332 42.4303 151.332 49.9805C151.376 56.5071 151.376 57.1234 151.894 58.9064C151.024 58.8074 149.956 58.7083 148.427 58.7083C147.205 58.7083 146.391 58.7523 145.367 58.9064C145.719 58.092 145.928 57.6847 146.027 54.8232C146.126 52.0166 146.335 38.248 145.873 34.9792C145.62 32.9871 145.114 32.5359 144.552 32.0186C148.68 31.8095 150.011 31.1491 151.288 30.4888V35.8927C151.905 34.3079 153.17 30.7859 158.277 30.7859C164.65 30.7859 164.705 35.4305 164.76 38.4902V53.8436Z" fill="black"/>
<path d="M119.491 23.313L115.265 27.5393L111.038 23.313L115.265 19.0867L119.491 23.313Z" fill="#D60651"/>
</g>
<defs>
<clipPath id="clip0_4450_18326">
<rect width="167" height="80" fill="white"/>
</clipPath>
</defs>
</svg>
