<svg width="201" height="80" viewBox="0 0 201 80" fill="none" xmlns="http://www.w3.org/2000/svg">
<g clip-path="url(#clip0_4450_18329)">
<path d="M176.522 28.9835C176.522 32.1617 177.785 35.2098 180.034 37.4571C182.282 39.7045 185.332 40.967 188.512 40.967C191.692 40.967 194.741 39.7045 196.99 37.4571C199.238 35.2098 200.501 32.1617 200.501 28.9835C200.501 25.8053 199.238 22.7572 196.99 20.5099C194.741 18.2625 191.692 17 188.512 17C185.332 17 182.282 18.2625 180.034 20.5099C177.785 22.7572 176.522 25.8053 176.522 28.9835Z" fill="#DD4814"/>
<path d="M181.012 27.5732C180.199 27.5732 179.562 28.2095 179.562 29.0225C179.562 29.8002 180.199 30.4719 181.012 30.4719C181.826 30.4719 182.462 29.8356 182.462 29.0225C182.462 28.2095 181.826 27.5732 181.012 27.5732ZM191.304 34.1129C190.597 34.5017 190.385 35.3855 190.774 36.0925C191.163 36.7994 192.047 37.0115 192.755 36.6227C193.462 36.2339 193.674 35.3501 193.285 34.6431C192.896 33.9361 192.012 33.724 191.304 34.1129ZM184.16 28.9872C184.16 27.5732 184.867 26.3006 185.964 25.5583L184.903 23.7908C183.63 24.6392 182.71 25.9118 182.321 27.4318C182.781 27.7853 183.064 28.3509 183.064 28.9872C183.064 29.6235 182.781 30.1891 182.321 30.5426C182.71 32.0626 183.665 33.3352 184.903 34.1836L185.964 32.4161C184.867 31.6738 184.16 30.4365 184.16 28.9872ZM188.369 24.7806C190.562 24.7806 192.365 26.4774 192.578 28.6337L194.629 28.5984C194.523 27.0076 193.851 25.5936 192.755 24.5332C192.224 24.7452 191.587 24.7099 191.021 24.3918C190.491 24.0736 190.137 23.5434 190.031 22.9778C189.501 22.8364 188.935 22.7657 188.369 22.7657C187.379 22.7657 186.424 23.0131 185.61 23.402L186.6 25.2048C187.131 24.922 187.732 24.7806 188.369 24.7806ZM188.369 33.1938C187.732 33.1938 187.131 33.0524 186.6 32.8049L185.61 34.6078C186.459 35.032 187.379 35.2441 188.369 35.2441C188.935 35.2441 189.501 35.1734 190.031 35.032C190.137 34.4664 190.456 33.9361 191.021 33.618C191.552 33.2998 192.189 33.2645 192.755 33.4766C193.816 32.4161 194.523 31.0021 194.629 29.4114L192.578 29.376C192.365 31.5324 190.562 33.1938 188.369 33.1938ZM191.304 23.8969C192.012 24.2857 192.861 24.0736 193.285 23.3666C193.674 22.695 193.462 21.8112 192.755 21.387C192.047 20.9982 191.198 21.2103 190.774 21.9173C190.385 22.6243 190.632 23.508 191.304 23.8969Z" fill="white"/>
<path d="M24.0149 60.48C22.8124 60.7981 21.1854 61.1163 19.2048 61.4344C17.1888 61.7879 14.8899 61.9647 12.2727 61.9647C9.97377 61.9647 8.0639 61.6465 6.50771 60.9749C4.95152 60.3032 3.67827 59.3841 2.72334 58.1469C1.7684 56.945 1.09641 55.4957 0.671992 53.8343C0.212208 52.1728 0 50.3346 0 48.2844V31.6347H5.3052V47.1532C5.3052 50.7588 5.87109 53.3747 7.03823 54.9301C8.17001 56.4855 10.1152 57.2632 12.8032 57.2632C13.3691 57.2632 13.9704 57.2278 14.5716 57.1925C15.1729 57.1571 15.7388 57.1218 16.3046 57.0511C16.8352 56.9804 17.3303 56.945 17.7547 56.8743C18.1791 56.8036 18.4975 56.7683 18.7097 56.6622V31.6347H24.0149V60.48ZM36.9595 32.9427C37.5962 32.5185 38.5865 32.0943 39.8951 31.6347C41.2037 31.1752 42.7245 30.9631 44.4222 30.9631C46.5443 30.9631 48.4542 31.3519 50.1164 32.0943C51.7787 32.872 53.1581 33.9324 54.3252 35.2757C55.457 36.6544 56.3412 38.2804 56.9425 40.1893C57.5437 42.0982 57.8267 44.1838 57.8267 46.4815C57.8267 48.8853 57.473 51.0416 56.7656 52.9505C56.0583 54.8594 55.068 56.4855 53.7593 57.8288C52.4507 59.172 50.8945 60.1972 49.0908 60.9042C47.2516 61.6112 45.2003 62 42.9014 62C40.4256 62 38.2328 61.8233 36.3229 61.4698C34.4131 61.1163 32.8569 60.7981 31.6544 60.4446V17.9191L36.9595 17V32.9427ZM36.9595 56.6976C37.4901 56.839 38.2328 56.9804 39.2231 57.1218C40.178 57.2632 41.4159 57.3339 42.866 57.3339C45.7308 57.3339 47.9944 56.3794 49.7274 54.5059C51.4604 52.6324 52.3093 49.9458 52.3093 46.4815C52.3093 44.9615 52.1678 43.5475 51.8495 42.2042C51.5312 40.861 51.036 39.7298 50.364 38.74C49.692 37.7502 48.8078 37.0079 47.7114 36.4423C46.615 35.8767 45.3064 35.6292 43.7856 35.6292C42.3355 35.6292 40.9915 35.8767 39.789 36.3716C38.5511 36.8665 37.6315 37.3967 36.9949 37.9269L36.9595 56.6976ZM87.5004 60.48C86.2625 60.7981 84.671 61.1163 82.6904 61.4344C80.6744 61.7879 78.3755 61.9647 75.7582 61.9647C73.4593 61.9647 71.5494 61.6465 69.9933 60.9749C68.4371 60.3032 67.1638 59.3841 66.2089 58.1469C65.2539 56.945 64.582 55.4957 64.1575 53.8343C63.7331 52.1728 63.5209 50.3346 63.5209 48.3197V31.6347H68.8261V47.1532C68.8261 50.7588 69.392 53.3747 70.5591 54.9301C71.6909 56.4855 73.6362 57.2632 76.3241 57.2632C76.89 57.2632 77.4913 57.2278 78.0925 57.1925C78.6938 57.1571 79.2597 57.1218 79.8256 57.0511C80.3561 56.9804 80.8512 56.945 81.2756 56.8743C81.7001 56.8036 82.0184 56.7683 82.2306 56.6622V31.6347H87.5358L87.5004 60.48ZM95.1399 32.4831C96.3424 32.165 97.9693 31.8468 99.9853 31.4933C102.001 31.1398 104.336 30.9631 106.953 30.9631C109.322 30.9631 111.268 31.2812 112.824 31.9529C114.38 32.6245 115.618 33.5436 116.573 34.7455C117.492 35.9474 118.164 37.3967 118.554 39.0581C118.943 40.7196 119.119 42.5931 119.119 44.608V61.293H113.814V45.7745C113.814 43.9364 113.673 42.381 113.461 41.1084C113.213 39.8005 112.789 38.7753 112.223 37.9623C111.657 37.1493 110.879 36.5837 109.924 36.2302C108.969 35.8767 107.802 35.6999 106.387 35.6999C105.821 35.6999 105.22 35.7353 104.619 35.7706C104.017 35.806 103.416 35.8413 102.885 35.912C102.32 35.9827 101.824 36.0534 101.4 36.1241C100.976 36.1948 100.657 36.2655 100.445 36.3009V61.3637H95.1399V32.4831ZM131.427 31.6347H142.674V36.0888H131.427V49.8044C131.427 51.2891 131.534 52.5263 131.781 53.4808C132.029 54.4352 132.347 55.2129 132.807 55.7785C133.267 56.3441 133.832 56.7329 134.504 56.945C135.176 57.1571 135.99 57.2985 136.91 57.2985C138.536 57.2985 139.845 57.1218 140.8 56.7683C141.755 56.4148 142.392 56.1673 142.745 55.9906L143.877 60.3386C143.346 60.6214 142.392 60.9395 141.048 61.3637C139.704 61.7879 138.147 62 136.45 62C134.434 62 132.771 61.7526 131.463 61.2223C130.154 60.6921 129.093 59.9497 128.28 58.9246C127.466 57.8994 126.9 56.6269 126.582 55.1422C126.264 53.6222 126.087 51.89 126.087 49.9104V23.3983L131.392 22.4792V31.6347H131.427ZM171.605 60.48C170.368 60.7981 168.776 61.1163 166.76 61.4344C164.744 61.7879 162.445 61.9647 159.828 61.9647C157.529 61.9647 155.619 61.6465 154.063 60.9749C152.507 60.3032 151.234 59.3841 150.279 58.1469C149.324 56.945 148.652 55.4957 148.227 53.8343C147.803 52.1728 147.591 50.3346 147.591 48.3197V31.6347H152.896V47.1532C152.896 50.7588 153.462 53.3747 154.593 54.9301C155.725 56.4855 157.671 57.2632 160.358 57.2632C160.924 57.2632 161.526 57.2278 162.127 57.1925C162.728 57.1571 163.294 57.1218 163.825 57.0511C164.355 56.9804 164.85 56.945 165.275 56.8743C165.699 56.8036 166.017 56.7683 166.23 56.6622V31.6347H171.535L171.605 60.48Z" fill="#DD4814"/>
</g>
<defs>
<clipPath id="clip0_4450_18329">
<rect width="201" height="80" fill="white"/>
</clipPath>
</defs>
</svg>
